<?xml version="1.0" encoding="UTF-8"?> <svg xmlns="http://www.w3.org/2000/svg" width="227" height="227" viewBox="0 0 227 227" fill="none"><g clip-path="url(#clip0_339_1200)"><path d="M226.993 -0.0424805H-0.00708008V226.958H226.993V-0.0424805Z" fill="#1A4262"></path><path d="M160.457 35.3814L148.375 32.5723C148.375 32.5723 159.288 50.7051 148.024 88.2275L162.006 85.9315C162.006 85.9303 170.721 57.5576 160.457 35.3814Z" fill="#EAC558"></path><path d="M137.237 30.2218L124.841 27.3394C124.841 27.3394 133.003 55.1019 121.466 92.4174L137.501 89.7845C137.499 89.7856 148.418 62.3506 137.237 30.2218Z" fill="#EAC558"></path><path d="M98.9356 21.3179L114.234 24.8754C114.234 24.8754 123.962 46.1271 112.462 93.8976L93.6755 96.9834C93.6755 96.9822 107.688 60.7828 98.9356 21.3179Z" fill="#EAC558"></path><path d="M87.0842 18.5548L60.0901 11.623C60.0901 11.623 77.8351 65.4031 56.0845 103.154L81.7166 98.9447C81.7166 98.9447 98.602 59.4266 87.0842 18.5548Z" fill="#EAC558"></path><path d="M177.381 113.83C177.36 113.747 177.381 113.716 177.381 113.716V113.83ZM193.292 106.101C192.425 104.853 191.631 105.337 191.631 105.337C191.631 105.337 191.115 104.522 190.64 103.871C190.166 103.221 190.382 102.706 190.382 102.706C190.856 101.88 190.898 100.931 190.815 100.333C190.721 99.7239 189.835 98.0936 188.379 97.5367C187.389 97.1548 186.315 97.5674 186.315 97.5674C185.748 96.825 184.376 96.371 184.376 96.371C184.407 92.5214 177.839 92.9258 177.839 92.9258C178.097 93.3597 179.217 96.7422 179.217 96.7422C179.217 96.7422 176.244 97.0626 173.603 100.592C170.951 104.121 169.227 111.334 169.506 119.527C170.373 144.954 179.687 154.137 174.655 165.159C169.336 176.812 151.077 181.443 151.077 181.443C151.077 181.443 113.04 192.113 108.913 212.204C109.295 210.769 111.049 200.113 136.453 193.111C143.403 191.266 163.095 190.254 173.167 184.576C183.239 178.896 187.7 169.617 187.999 160.711C188.586 143.282 175.244 136.286 177.381 113.842C177.474 114.079 177.937 114.688 180.187 116.102C183.293 118.042 184.985 115.317 184.985 115.317C186.533 114.884 186.41 113.986 186.017 113.026C185.626 112.077 184.841 111.437 184.026 110.426C184.934 109.518 186.307 109.869 187.173 110.354C187.741 110.674 187.545 110.54 188.968 111.84C189.763 112.562 190.898 110.179 190.898 110.179C190.898 110.179 191.404 110.592 192.611 109.817C193.829 109.031 194.158 107.35 193.292 106.101Z" fill="#EAC558"></path><path d="M179.673 113.716V113.83C179.653 113.747 179.673 113.716 179.673 113.716Z" fill="white"></path><path d="M78.7606 120.619L76.9328 116.365L75.105 120.619H78.7606ZM82.0001 125H80.644L79.2099 121.667H74.6344L73.2145 125H71.8584L76.9328 113.674L82.0001 125Z" fill="white"></path><path d="M88.7309 118.177L85.469 125.308L82.1929 118.177H83.5277L85.469 122.781L87.382 118.177H88.7309Z" fill="white"></path><path d="M95.5423 121.568C95.5423 120.849 95.3046 120.256 94.8282 119.787C94.3529 119.318 93.7653 119.085 93.0654 119.085C92.3607 119.085 91.7731 119.319 91.3026 119.787C90.832 120.257 90.5956 120.85 90.5956 121.568C90.5956 122.291 90.8344 122.896 91.3132 123.38C91.7921 123.865 92.3749 124.109 93.0654 124.109C93.7688 124.109 94.3588 123.866 94.8317 123.38C95.3046 122.894 95.5423 122.29 95.5423 121.568ZM96.7057 121.568C96.7057 122.581 96.351 123.444 95.6428 124.155C94.9334 124.867 94.0703 125.221 93.0524 125.221C92.0439 125.221 91.1879 124.867 90.4868 124.158C89.7845 123.45 89.4346 122.586 89.4346 121.568C89.4346 120.55 89.7822 119.695 90.4762 119.006C91.1702 118.315 92.0297 117.97 93.0524 117.97C94.0845 117.97 94.9523 118.317 95.6534 119.009C96.3545 119.701 96.7057 120.555 96.7057 121.568Z" fill="white"></path><path d="M103.945 124.722C103.635 124.889 103.301 125.013 102.939 125.097C102.577 125.181 102.192 125.222 101.784 125.222C100.694 125.222 99.8034 124.885 99.1106 124.213C98.4177 123.54 98.0725 122.672 98.0725 121.611C98.0725 120.54 98.4284 119.667 99.1389 118.988C99.8507 118.311 100.77 117.971 101.897 117.971C102.286 117.971 102.641 118.009 102.96 118.086C103.278 118.163 103.578 118.279 103.86 118.436V119.686C103.589 119.495 103.283 119.347 102.942 119.242C102.602 119.138 102.267 119.085 101.939 119.085C101.13 119.085 100.48 119.319 99.9866 119.785C99.4936 120.251 99.2477 120.874 99.2477 121.654C99.2477 122.382 99.496 122.971 99.9937 123.42C100.491 123.87 101.139 124.095 101.939 124.095C102.319 124.095 102.685 124.042 103.035 123.935C103.385 123.827 103.688 123.677 103.945 123.482V124.722Z" fill="white"></path><path d="M111.192 121.51C111.192 120.763 110.987 120.172 110.575 119.737C110.164 119.301 109.615 119.083 108.929 119.083C108.25 119.083 107.696 119.309 107.271 119.76C106.845 120.213 106.632 120.81 106.632 121.553C106.632 122.304 106.841 122.916 107.26 123.386C107.678 123.857 108.216 124.093 108.873 124.093C109.539 124.093 110.092 123.851 110.531 123.369C110.972 122.887 111.192 122.267 111.192 121.51ZM112.363 125H111.192V123.872C110.959 124.311 110.632 124.644 110.211 124.875C109.79 125.105 109.293 125.221 108.724 125.221C107.772 125.221 106.989 124.876 106.376 124.187C105.761 123.496 105.455 122.613 105.455 121.538C105.455 120.486 105.763 119.629 106.379 118.966C106.995 118.302 107.786 117.97 108.752 117.97C109.299 117.97 109.783 118.078 110.201 118.292C110.62 118.506 110.951 118.812 111.193 119.213V118.178H112.364V125H112.363Z" fill="white"></path><path d="M117.204 119.227H116.12V125H114.956V119.227H114.135V118.177H114.956V115.416H116.12V118.177H117.204V119.227Z" fill="white"></path><path d="M123.023 123.159C123.023 123.787 122.795 124.288 122.338 124.661C121.881 125.034 121.258 125.221 120.468 125.221C119.874 125.221 119.37 125.101 118.959 124.861C118.547 124.621 118.247 124.272 118.055 123.815L119.047 123.188C119.186 123.515 119.378 123.761 119.625 123.923C119.873 124.084 120.176 124.165 120.539 124.165C120.939 124.165 121.257 124.081 121.496 123.915C121.734 123.748 121.853 123.52 121.853 123.23C121.853 122.911 121.745 122.669 121.528 122.502C121.311 122.336 120.889 122.14 120.26 121.917C119.647 121.689 119.186 121.405 118.879 121.068C118.572 120.73 118.42 120.33 118.42 119.869C118.42 119.279 118.616 118.814 119.008 118.477C119.401 118.139 119.949 117.97 120.654 117.97C121.168 117.97 121.596 118.075 121.938 118.285C122.281 118.494 122.554 118.818 122.76 119.255L121.796 119.841C121.672 119.554 121.515 119.344 121.324 119.208C121.134 119.073 120.896 119.005 120.612 119.005C120.284 119.005 120.026 119.08 119.841 119.229C119.655 119.38 119.563 119.583 119.563 119.839C119.563 120.101 119.66 120.319 119.852 120.496C120.045 120.672 120.396 120.843 120.905 121.01C121.657 121.252 122.198 121.542 122.528 121.877C122.858 122.213 123.023 122.64 123.023 123.159Z" fill="white"></path><path d="M135.183 121.51C135.183 120.763 134.978 120.172 134.566 119.736C134.155 119.301 133.606 119.083 132.922 119.083C132.241 119.083 131.689 119.308 131.262 119.76C130.836 120.213 130.623 120.81 130.623 121.552C130.623 122.304 130.833 122.916 131.251 123.386C131.67 123.857 132.208 124.093 132.864 124.093C133.531 124.093 134.083 123.851 134.523 123.368C134.964 122.887 135.183 122.267 135.183 121.51ZM136.354 125H135.183V123.872C134.951 124.311 134.623 124.644 134.202 124.875C133.781 125.105 133.285 125.221 132.715 125.221C131.763 125.221 130.98 124.876 130.367 124.187C129.753 123.496 129.446 122.613 129.446 121.538C129.446 120.486 129.753 119.629 130.369 118.966C130.985 118.302 131.776 117.97 132.742 117.97C133.288 117.97 133.772 118.078 134.19 118.292C134.609 118.506 134.94 118.812 135.182 119.213V112.939H136.353V125H136.354Z" fill="white"></path><path d="M144.294 122.059C144.294 123.148 144.074 123.949 143.634 124.457C143.195 124.967 142.508 125.221 141.575 125.221C140.637 125.221 139.949 124.965 139.513 124.457C139.075 123.948 138.857 123.148 138.857 122.059V118.177H140.027V122.016C140.027 122.744 140.144 123.271 140.381 123.6C140.616 123.927 141.014 124.093 141.576 124.093C142.138 124.093 142.534 123.931 142.764 123.607C142.995 123.284 143.109 122.753 143.109 122.016V118.177H144.294V122.059Z" fill="white"></path><path d="M66.2274 146.091H67.0124C67.9133 146.091 68.56 145.975 68.949 145.744C69.3392 145.513 69.5342 145.142 69.5342 144.63C69.5342 144.118 69.3392 143.747 68.949 143.516C68.56 143.284 67.9145 143.169 67.0124 143.169H66.2274V146.091ZM66.2274 140.5H66.8847C68.0055 140.5 68.5659 140.056 68.5659 139.166C68.5659 138.276 68.0055 137.833 66.8847 137.833H66.2274V140.5ZM62.6462 135.092H67.9807C69.2481 135.092 70.2105 135.397 70.8679 136.006C71.5264 136.615 71.8551 137.492 71.8551 138.636C71.8551 139.331 71.7298 139.907 71.4803 140.363C71.2308 140.819 70.8501 141.206 70.3382 141.523C70.8501 141.621 71.2852 141.77 71.6446 141.971C72.0029 142.172 72.2961 142.419 72.5219 142.711C72.7477 143.002 72.9085 143.332 73.0054 143.697C73.1036 144.062 73.152 144.452 73.152 144.866C73.152 145.512 73.0397 146.084 72.8139 146.584C72.5881 147.084 72.2712 147.503 71.8634 147.844C71.4555 148.186 70.9589 148.442 70.3737 148.612C69.7896 148.782 69.1323 148.867 68.4016 148.867H62.645V135.092H62.6462Z" fill="white"></path><path d="M83.6756 143.753L82.0688 139.166L80.4597 143.753H83.6756ZM84.6261 146.475H79.5104L78.6887 148.868H74.8699L80.1133 135.092H84.0232L89.2666 148.868H85.449L84.6261 146.475Z" fill="white"></path><path d="M95.5138 141.25H96.1913C96.8971 141.25 97.4386 141.103 97.8169 140.811C98.1941 140.519 98.3832 140.098 98.3832 139.551C98.3832 139.003 98.1941 138.582 97.8169 138.292C97.4386 138 96.8959 137.852 96.1913 137.852H95.5138V141.25ZM103.389 148.868H98.9318L95.5138 143.57V148.868H91.9338V135.092H97.506C98.2745 135.092 98.9436 135.205 99.5159 135.43C100.088 135.655 100.561 135.964 100.932 136.353C101.305 136.743 101.584 137.194 101.774 137.705C101.963 138.217 102.057 138.766 102.057 139.35C102.057 140.397 101.804 141.247 101.299 141.899C100.793 142.55 100.048 142.992 99.0595 143.224L103.389 148.868Z" fill="white"></path><path d="M109.565 141.25H110.242C110.947 141.25 111.489 141.103 111.868 140.811C112.246 140.519 112.435 140.098 112.435 139.551C112.435 139.003 112.246 138.582 111.868 138.292C111.49 138 110.947 137.852 110.242 137.852H109.565V141.25ZM117.439 148.868H112.982L109.564 143.57V148.868H105.984V135.092H111.556C112.325 135.092 112.994 135.205 113.567 135.43C114.14 135.655 114.611 135.964 114.983 136.353C115.355 136.743 115.634 137.194 115.823 137.705C116.012 138.217 116.107 138.766 116.107 139.35C116.107 140.397 115.854 141.247 115.349 141.899C114.843 142.55 114.098 142.992 113.11 143.224L117.439 148.868Z" fill="white"></path><path d="M127.855 138.125H123.598V140.428H127.618V143.459H123.598V145.836H127.855V148.868H120.016V135.092H127.855V138.125Z" fill="white"></path><path d="M139.017 143.753L137.411 139.166L135.803 143.753H139.017ZM139.968 146.475H134.852L134.031 148.868H130.213L135.456 135.092H139.366L144.61 148.868H140.792L139.968 146.475Z" fill="white"></path><path d="M150.474 135.092V142.583C150.474 142.985 150.488 143.397 150.519 143.816C150.55 144.236 150.641 144.617 150.793 144.959C150.944 145.299 151.186 145.577 151.514 145.79C151.844 146.002 152.306 146.11 152.904 146.11C153.499 146.11 153.961 146.004 154.282 145.79C154.605 145.577 154.845 145.3 155.003 144.959C155.162 144.617 155.255 144.236 155.286 143.816C155.318 143.397 155.332 142.985 155.332 142.583V135.092H158.894V143.076C158.894 145.22 158.404 146.785 157.423 147.771C156.443 148.758 154.937 149.253 152.902 149.253C150.868 149.253 149.358 148.76 148.371 147.771C147.385 146.785 146.892 145.22 146.892 143.076V135.092H150.474Z" fill="white"></path><path d="M67.7809 168.259H68.6026C69.2233 168.259 69.7778 168.162 70.2649 167.967C70.752 167.773 71.1634 167.505 71.498 167.164C71.8326 166.824 72.088 166.418 72.2653 165.949C72.4415 165.481 72.529 164.965 72.529 164.405C72.529 163.856 72.4391 163.344 72.2558 162.87C72.0726 162.395 71.8148 161.987 71.4791 161.646C71.1445 161.305 70.7331 161.036 70.2459 160.842C69.76 160.647 69.2114 160.55 68.6026 160.55H67.7809V168.259ZM64.1997 157.517H69.4999C70.4363 157.517 71.3171 157.705 72.1388 158.083C72.9605 158.459 73.6793 158.963 74.2953 159.59C74.9101 160.217 75.3936 160.949 75.7471 161.782C76.1007 162.617 76.2756 163.49 76.2756 164.403C76.2756 165.304 76.1018 166.173 75.7554 167.007C75.4102 167.842 74.9278 168.576 74.313 169.208C73.6982 169.842 72.9794 170.348 72.1565 170.725C71.3348 171.102 70.4493 171.291 69.4999 171.291H64.1997V157.517Z" fill="white"></path><path d="M87.4944 160.549H83.237V162.852H87.2568V165.885H83.237V168.26H87.4944V171.293H79.657V157.517H87.4944V160.549Z" fill="white"></path><path d="M108.397 162.12C107.568 161.11 106.546 160.604 105.327 160.604C104.79 160.604 104.295 160.7 103.837 160.896C103.381 161.091 102.988 161.355 102.659 161.69C102.33 162.025 102.071 162.424 101.883 162.887C101.694 163.35 101.6 163.849 101.6 164.386C101.6 164.934 101.695 165.439 101.883 165.903C102.071 166.365 102.333 166.768 102.668 167.109C103.004 167.449 103.396 167.717 103.847 167.911C104.298 168.106 104.784 168.203 105.308 168.203C106.452 168.203 107.482 167.716 108.396 166.742V170.982L108.029 171.109C107.482 171.304 106.971 171.449 106.495 171.539C106.021 171.63 105.551 171.677 105.089 171.677C104.139 171.677 103.227 171.496 102.357 171.137C101.487 170.778 100.718 170.271 100.055 169.621C99.3905 168.969 98.8584 168.195 98.4553 167.3C98.0533 166.405 97.8523 165.427 97.8523 164.368C97.8523 163.307 98.0497 162.337 98.4458 161.454C98.8419 160.57 99.3715 159.809 100.035 159.169C100.698 158.53 101.469 158.03 102.347 157.67C103.223 157.311 104.143 157.132 105.106 157.132C105.654 157.132 106.193 157.19 106.723 157.306C107.254 157.421 107.81 157.6 108.395 157.844V162.12H108.397Z" fill="white"></path><path d="M119.578 166.177L117.97 161.591L116.362 166.177H119.578ZM120.529 168.9H115.413L114.591 171.293H110.771L116.016 157.517H119.926L125.169 171.293H121.352L120.529 168.9Z" fill="white"></path><path d="M135.675 160.549H131.418V162.852H135.437V165.885H131.418V168.26H135.675V171.293H127.838V157.517H135.675V160.549Z" fill="white"></path><path d="M139.347 171.293V157.517H142.928L149.542 165.94V157.517H153.105V171.293H149.542L142.928 162.87V171.293H139.347Z" fill="white"></path><path d="M118.241 217.185H99.5833C99.5833 212.031 103.761 207.859 108.915 207.859C114.063 207.859 118.241 212.03 118.241 217.185Z" fill="#EAC558"></path><path d="M108.911 212.203C108.333 210.282 105.897 194.298 63.885 192.312C37.5353 188.521 30.6674 182.972 32.8487 166.333C34.167 156.284 41.2134 144.422 42.3236 140.375C43.4539 136.254 44.0509 133.094 41.6509 130.001C40.536 128.565 37.345 128.734 36.1981 129.798C34.9709 130.935 35.8127 132.326 36.1745 132.718C36.5351 133.111 36.7621 132.77 36.5978 132.358C36.4216 131.934 36.794 131.459 36.794 131.459C37.4644 130.674 38.3736 130.335 39.265 131.11C39.7557 131.536 40.0548 132.378 39.1882 133.832C38.3215 135.287 37.1759 135.174 37.1759 135.174C35.03 135.132 34.2663 133.915 34.0393 133.646C33.8229 133.369 32.027 130.293 35.2984 128.425C38.5805 126.557 47.7562 126.38 45.6376 142.171C43.4893 158.191 37.0317 162.468 40.6944 171.663C43.8216 179.496 62.3079 184.678 67.7925 185.522C78.5301 187.173 104.496 192.411 108.911 212.203Z" fill="#EAC558"></path><path d="M33.6301 131.708C33.6301 129.839 35.1446 128.325 37.0138 128.325C38.883 128.325 40.3987 129.839 40.3987 131.708C40.3987 133.578 38.883 135.092 37.0138 135.092C35.1446 135.092 33.6301 133.578 33.6301 131.708Z" fill="#EAC558"></path></g><defs><clipPath id="clip0_339_1200"><rect width="227" height="227" fill="white"></rect></clipPath></defs></svg> 