<?xml version="1.0" encoding="UTF-8" standalone="no"?> <svg xmlns="http://www.w3.org/2000/svg" xmlns:xlink="http://www.w3.org/1999/xlink" xmlns:serif="http://www.serif.com/" width="100%" height="100%" viewBox="0 0 55 23" version="1.1" xml:space="preserve" style="fill-rule:evenodd;clip-rule:evenodd;stroke-linejoin:round;stroke-miterlimit:2;"><path d="M47.977,16.841c-3.803,0 -6.704,-2.929 -6.704,-6.493c0,-3.539 2.901,-6.468 6.704,-6.468c3.804,0 6.705,2.929 6.705,6.468c0,3.564 -2.901,6.493 -6.705,6.493Zm0,-4.125c1.39,0 2.316,-1.074 2.316,-2.344c0,-1.293 -0.926,-2.367 -2.316,-2.367c-1.389,0 -2.316,1.074 -2.316,2.367c0.001,1.27 0.927,2.344 2.316,2.344Zm-14.99,9.739c-3.022,0 -5.217,-1.343 -6.338,-3.735l3.632,-1.952c0.39,0.83 1.122,1.684 2.633,1.684c1.585,0 2.633,-1.001 2.755,-2.758c-0.585,0.513 -1.512,0.903 -2.901,0.903c-3.389,0 -6.12,-2.612 -6.12,-6.273c0,-3.539 2.902,-6.42 6.705,-6.42c3.901,0 6.705,2.71 6.705,6.444l0,4.833c0,4.394 -3.048,7.274 -7.071,7.274Zm0.293,-9.983c1.316,0 2.316,-0.903 2.316,-2.246c0,-1.318 -0.999,-2.197 -2.316,-2.197c-1.292,0 -2.316,0.879 -2.316,2.198c0,1.342 1.024,2.245 2.316,2.245l0,0Zm-14.075,4.369c-3.803,0 -6.705,-2.929 -6.705,-6.493c0,-3.539 2.902,-6.468 6.705,-6.468c3.803,0 6.704,2.929 6.704,6.468c0,3.564 -2.901,6.493 -6.705,6.493l0.001,0Zm0,-4.125c1.39,0 2.316,-1.074 2.316,-2.344c0,-1.293 -0.926,-2.367 -2.316,-2.367c-1.39,0 -2.316,1.074 -2.316,2.367c0,1.27 0.926,2.344 2.316,2.344Zm-14.695,-12.716l0,12.325l7.265,0l0,4.15l-7.875,0c-2.779,0 -3.9,-1.465 -3.9,-3.784l0,-12.691l4.51,0Z" style="fill-rule:nonzero;"></path></svg> 